<?xml version="1.0" standalone="no"?>
<!DOCTYPE svg PUBLIC "-//W3C//DTD SVG 20010904//EN"
 "http://www.w3.org/TR/2001/REC-SVG-20010904/DTD/svg10.dtd">
<svg version="1.0" xmlns="http://www.w3.org/2000/svg"
 width="256.000000pt" height="247.000000pt" viewBox="0 0 256.000000 247.000000"
 preserveAspectRatio="xMidYMid meet">

<g transform="translate(0.000000,247.000000) scale(0.100000,-0.100000)"
fill="#000000" stroke="none">
<path d="M1225 1951 c-39 -23 -83 -75 -91 -107 -6 -21 -12 -24 -58 -24 -124 0
-235 -99 -252 -224 -12 -87 37 -206 104 -250 l29 -19 -23 -34 c-19 -28 -64
-184 -64 -222 0 -8 57 -11 196 -11 181 0 195 1 190 18 -2 9 -10 49 -17 89
l-12 71 29 25 c39 34 48 17 35 -65 -5 -35 -12 -80 -15 -100 l-5 -38 56 0 55 0
-7 63 c-4 34 -10 79 -15 99 -5 26 -4 43 5 55 12 16 13 15 26 -5 8 -12 19 -22
26 -22 13 0 13 -5 -12 -127 l-13 -63 203 0 203 0 -18 83 c-23 107 -42 152 -72
170 -12 8 -63 32 -113 52 -107 45 -149 79 -142 115 8 43 31 95 49 108 26 19
43 84 29 110 -6 11 -11 52 -11 91 0 65 -3 73 -32 106 -17 20 -48 45 -69 56
-51 26 -152 26 -194 0z m233 -88 c5 -10 12 -48 15 -84 6 -63 5 -67 -13 -62
-11 3 -20 12 -20 20 0 10 -10 13 -37 11 -23 -2 -37 -8 -36 -15 2 -6 -7 -15
-18 -18 -29 -10 -69 3 -69 21 0 11 -8 14 -32 12 -45 -4 -49 -28 -5 -28 19 0
40 -6 47 -14 6 -8 18 -12 27 -9 8 3 19 0 24 -8 7 -11 9 -11 9 2 0 19 20 29 58
29 44 0 58 -14 46 -47 -7 -22 -16 -29 -44 -31 -24 -3 -38 2 -47 14 -7 10 -13
13 -13 7 0 -20 29 -34 62 -31 26 2 37 10 50 37 14 29 18 32 24 17 7 -17 8 -17
17 -1 7 14 11 15 18 4 12 -20 0 -60 -26 -89 -12 -14 -25 -37 -29 -52 -3 -15
-20 -43 -36 -62 -76 -86 -170 -68 -234 44 -14 25 -26 38 -26 30 1 -8 7 -26 15
-40 36 -62 11 -101 -93 -144 l-63 -27 -29 21 c-15 11 -40 43 -54 72 -46 92
-31 195 37 267 34 35 124 84 140 74 5 -3 6 -39 2 -83 -6 -72 -5 -80 15 -100
12 -12 24 -19 28 -16 3 4 -4 13 -16 22 -17 12 -22 25 -22 57 1 39 2 41 15 23
8 -11 15 -14 15 -8 0 7 5 12 10 12 6 0 10 -5 10 -12 0 -21 32 -48 57 -48 29 0
63 17 63 31 0 6 -7 3 -16 -5 -20 -20 -68 -21 -84 -1 -7 8 -10 26 -8 40 4 17 1
25 -8 25 -11 0 -13 12 -8 58 11 91 13 93 97 86 39 -3 86 -1 102 5 46 15 73 13
83 -6z m-202 -418 c48 -33 100 -33 148 0 35 24 36 24 36 4 0 -22 -48 -72 -91
-94 -23 -12 -29 -12 -50 2 -45 30 -89 77 -89 95 0 23 2 23 46 -7z m194 -96
c-20 -91 -28 -97 -73 -51 l-39 39 34 21 c18 11 44 33 58 47 31 33 36 20 20
-56z m-167 6 l28 -18 -38 -39 -37 -38 -14 26 c-7 14 -16 51 -19 82 l-6 57 29
-26 c16 -15 42 -34 57 -44z"/>
<path d="M1232 1689 c2 -6 8 -10 13 -10 5 0 11 4 13 10 2 6 -4 11 -13 11 -9 0
-15 -5 -13 -11z"/>
<path d="M1390 1685 c0 -8 5 -15 10 -15 6 0 10 7 10 15 0 8 -4 15 -10 15 -5 0
-10 -7 -10 -15z"/>
<path d="M1308 1587 c15 -7 26 -7 33 0 6 6 -1 10 -23 10 -30 0 -30 -1 -10 -10z"/>
<path d="M1273 1538 c15 -9 76 -9 99 0 10 4 -11 7 -46 7 -35 0 -59 -3 -53 -7z"/>
<path d="M1308 1503 c6 -2 18 -2 25 0 6 3 1 5 -13 5 -14 0 -19 -2 -12 -5z"/>
<path d="M1130 988 c-31 -11 -40 -25 -40 -65 0 -50 59 -81 100 -52 11 8 8 9
-14 4 -56 -12 -97 44 -63 88 6 9 28 17 47 19 26 2 30 4 15 9 -12 3 -32 2 -45
-3z"/>
<path d="M1580 993 c-30 -11 -50 -37 -50 -65 0 -51 59 -85 100 -58 11 8 8 9
-13 4 -36 -8 -77 18 -77 51 0 36 27 58 68 53 30 -4 32 -3 16 9 -19 14 -21 14
-44 6z"/>
<path d="M848 926 c15 -36 30 -62 34 -58 14 14 57 122 48 122 -4 0 -16 -22
-26 -50 -10 -27 -21 -50 -25 -50 -4 0 -15 23 -25 50 -10 28 -21 50 -25 50 -4
0 4 -29 19 -64z"/>
<path d="M978 936 c-31 -62 -37 -93 -12 -58 19 28 60 29 74 1 7 -11 14 -19 16
-16 3 3 -8 33 -23 67 l-28 62 -27 -56z m30 -24 c-27 -5 -32 2 -18 29 l13 22
13 -24 c11 -22 11 -24 -8 -27z"/>
<path d="M1257 933 c-30 -68 -35 -88 -11 -55 8 12 26 22 39 22 13 0 31 -10 39
-22 24 -33 18 -11 -12 56 l-28 60 -27 -61z m46 -3 c4 -16 0 -20 -20 -20 -13 0
-22 3 -20 8 2 4 7 15 10 25 8 22 22 15 30 -13z"/>
<path d="M1382 923 c2 -64 2 -65 5 -15 2 28 8 52 14 52 5 0 9 -3 9 -7 0 -5 18
-28 40 -53 l39 -45 -1 70 c-1 54 -2 59 -5 23 -2 -27 -8 -48 -12 -48 -5 0 -24
20 -42 45 -19 24 -37 45 -41 45 -5 0 -7 -30 -6 -67z"/>
<path d="M1693 925 c0 -38 2 -53 4 -32 2 20 2 52 0 70 -2 17 -4 1 -4 -38z"/>
<path d="M1769 933 c-34 -81 -34 -80 -10 -55 28 28 56 28 75 0 9 -12 16 -18
16 -11 0 12 -48 123 -53 123 -2 0 -14 -26 -28 -57z m51 -15 c0 -4 -9 -8 -20
-8 -21 0 -24 8 -13 36 6 16 7 16 20 -2 7 -10 13 -21 13 -26z"/>
<path d="M1601 764 c0 -11 3 -14 6 -6 3 7 2 16 -1 19 -3 4 -6 -2 -5 -13z"/>
<path d="M1351 744 c0 -11 3 -14 6 -6 3 7 2 16 -1 19 -3 4 -6 -2 -5 -13z"/>
<path d="M1571 744 c0 -11 3 -14 6 -6 3 7 2 16 -1 19 -3 4 -6 -2 -5 -13z"/>
</g>
</svg>
